<mxfile host="app.diagrams.net" agent="Mozilla/5.0 (Macintosh; Intel Mac OS X 10_15_7) AppleWebKit/605.1.15 (KHTML, like Gecko) Version/17.6 Safari/605.1.15" scale="1" border="0" version="25.0.1">
  <diagram name="Page-1" id="z9LAb5Ok6JyxKWv0N6qz">
    <mxGraphModel dx="986" dy="580" grid="1" gridSize="10" guides="1" tooltips="1" connect="1" arrows="1" fold="1" page="1" pageScale="1" pageWidth="850" pageHeight="1100" background="#ffffff" math="0" shadow="0">
      <root>
        <mxCell id="0" />
        <mxCell id="1" parent="0" />
        <mxCell id="tyZj8-Vchyw1UYnpqM6E-8" value="" style="edgeStyle=orthogonalEdgeStyle;rounded=0;orthogonalLoop=1;jettySize=auto;html=1;exitX=0.5;exitY=1;exitDx=0;exitDy=0;entryX=0.5;entryY=0;entryDx=0;entryDy=0;" parent="1" source="IAnWaaNqXIJdnMADpOCD-14" target="IAnWaaNqXIJdnMADpOCD-21" edge="1">
          <mxGeometry relative="1" as="geometry">
            <mxPoint x="619.9999999999998" y="630" as="sourcePoint" />
            <mxPoint x="620" y="590" as="targetPoint" />
          </mxGeometry>
        </mxCell>
        <mxCell id="IAnWaaNqXIJdnMADpOCD-23" value="NO" style="edgeLabel;html=1;align=center;verticalAlign=middle;resizable=0;points=[];" parent="tyZj8-Vchyw1UYnpqM6E-8" vertex="1" connectable="0">
          <mxGeometry x="-0.4655" y="2" relative="1" as="geometry">
            <mxPoint x="-1" as="offset" />
          </mxGeometry>
        </mxCell>
        <mxCell id="IAnWaaNqXIJdnMADpOCD-1" value="Start" style="ellipse;whiteSpace=wrap;html=1;" parent="1" vertex="1">
          <mxGeometry x="560" y="40" width="120" height="40" as="geometry" />
        </mxCell>
        <mxCell id="IAnWaaNqXIJdnMADpOCD-2" value="n: int" style="shape=parallelogram;perimeter=parallelogramPerimeter;whiteSpace=wrap;html=1;fixedSize=1;" parent="1" vertex="1">
          <mxGeometry x="560" y="120" width="120" height="40" as="geometry" />
        </mxCell>
        <mxCell id="IAnWaaNqXIJdnMADpOCD-3" value="" style="edgeStyle=orthogonalEdgeStyle;rounded=0;orthogonalLoop=1;jettySize=auto;html=1;entryX=0.5;entryY=0;entryDx=0;entryDy=0;exitX=0.5;exitY=1;exitDx=0;exitDy=0;" parent="1" source="IAnWaaNqXIJdnMADpOCD-1" target="IAnWaaNqXIJdnMADpOCD-2" edge="1">
          <mxGeometry relative="1" as="geometry">
            <mxPoint x="410" y="170" as="targetPoint" />
            <mxPoint x="410" y="110" as="sourcePoint" />
          </mxGeometry>
        </mxCell>
        <mxCell id="IAnWaaNqXIJdnMADpOCD-4" value="N &amp;lt;= 0" style="rhombus;whiteSpace=wrap;html=1;" parent="1" vertex="1">
          <mxGeometry x="560" y="200" width="120" height="40" as="geometry" />
        </mxCell>
        <mxCell id="IAnWaaNqXIJdnMADpOCD-5" value="&quot;&quot;" style="shape=parallelogram;perimeter=parallelogramPerimeter;whiteSpace=wrap;html=1;fixedSize=1;" parent="1" vertex="1">
          <mxGeometry x="720" y="200" width="120" height="40" as="geometry" />
        </mxCell>
        <mxCell id="IAnWaaNqXIJdnMADpOCD-6" value="End" style="ellipse;whiteSpace=wrap;html=1;" parent="1" vertex="1">
          <mxGeometry x="880" y="200" width="120" height="40" as="geometry" />
        </mxCell>
        <mxCell id="IAnWaaNqXIJdnMADpOCD-7" value="" style="edgeStyle=orthogonalEdgeStyle;rounded=0;orthogonalLoop=1;jettySize=auto;html=1;entryX=0;entryY=0.5;entryDx=0;entryDy=0;exitX=1;exitY=0.5;exitDx=0;exitDy=0;" parent="1" source="IAnWaaNqXIJdnMADpOCD-4" target="IAnWaaNqXIJdnMADpOCD-5" edge="1">
          <mxGeometry relative="1" as="geometry">
            <mxPoint x="630" y="130" as="targetPoint" />
            <mxPoint x="630" y="90" as="sourcePoint" />
          </mxGeometry>
        </mxCell>
        <mxCell id="IAnWaaNqXIJdnMADpOCD-10" value="YES" style="edgeLabel;html=1;align=center;verticalAlign=middle;resizable=0;points=[];" parent="IAnWaaNqXIJdnMADpOCD-7" vertex="1" connectable="0">
          <mxGeometry x="-0.3393" y="1" relative="1" as="geometry">
            <mxPoint as="offset" />
          </mxGeometry>
        </mxCell>
        <mxCell id="IAnWaaNqXIJdnMADpOCD-8" value="" style="edgeStyle=orthogonalEdgeStyle;rounded=0;orthogonalLoop=1;jettySize=auto;html=1;entryX=0.5;entryY=0;entryDx=0;entryDy=0;exitX=0.5;exitY=1;exitDx=0;exitDy=0;" parent="1" source="IAnWaaNqXIJdnMADpOCD-2" target="IAnWaaNqXIJdnMADpOCD-4" edge="1">
          <mxGeometry relative="1" as="geometry">
            <mxPoint x="740" y="230" as="targetPoint" />
            <mxPoint x="690" y="230" as="sourcePoint" />
          </mxGeometry>
        </mxCell>
        <mxCell id="IAnWaaNqXIJdnMADpOCD-9" value="" style="edgeStyle=orthogonalEdgeStyle;rounded=0;orthogonalLoop=1;jettySize=auto;html=1;entryX=0;entryY=0.5;entryDx=0;entryDy=0;exitX=1;exitY=0.5;exitDx=0;exitDy=0;" parent="1" source="IAnWaaNqXIJdnMADpOCD-5" target="IAnWaaNqXIJdnMADpOCD-6" edge="1">
          <mxGeometry relative="1" as="geometry">
            <mxPoint x="630" y="210" as="targetPoint" />
            <mxPoint x="630" y="170" as="sourcePoint" />
          </mxGeometry>
        </mxCell>
        <mxCell id="IAnWaaNqXIJdnMADpOCD-11" value="s = str(n)" style="rounded=0;whiteSpace=wrap;html=1;" parent="1" vertex="1">
          <mxGeometry x="560" y="280" width="120" height="40" as="geometry" />
        </mxCell>
        <mxCell id="IAnWaaNqXIJdnMADpOCD-12" value="res = &quot;&quot;" style="rounded=0;whiteSpace=wrap;html=1;" parent="1" vertex="1">
          <mxGeometry x="560" y="360" width="120" height="40" as="geometry" />
        </mxCell>
        <mxCell id="IAnWaaNqXIJdnMADpOCD-28" value="" style="edgeStyle=orthogonalEdgeStyle;rounded=0;orthogonalLoop=1;jettySize=auto;html=1;" parent="1" source="IAnWaaNqXIJdnMADpOCD-13" target="IAnWaaNqXIJdnMADpOCD-14" edge="1">
          <mxGeometry relative="1" as="geometry" />
        </mxCell>
        <mxCell id="IAnWaaNqXIJdnMADpOCD-13" value="i = 0" style="rounded=0;whiteSpace=wrap;html=1;" parent="1" vertex="1">
          <mxGeometry x="560" y="440" width="120" height="40" as="geometry" />
        </mxCell>
        <mxCell id="IAnWaaNqXIJdnMADpOCD-14" value="i == len(s)" style="rhombus;whiteSpace=wrap;html=1;" parent="1" vertex="1">
          <mxGeometry x="560" y="520" width="120" height="40" as="geometry" />
        </mxCell>
        <mxCell id="IAnWaaNqXIJdnMADpOCD-16" value="res" style="shape=parallelogram;perimeter=parallelogramPerimeter;whiteSpace=wrap;html=1;fixedSize=1;" parent="1" vertex="1">
          <mxGeometry x="720" y="520" width="120" height="40" as="geometry" />
        </mxCell>
        <mxCell id="IAnWaaNqXIJdnMADpOCD-17" value="End" style="ellipse;whiteSpace=wrap;html=1;" parent="1" vertex="1">
          <mxGeometry x="880" y="520" width="120" height="40" as="geometry" />
        </mxCell>
        <mxCell id="IAnWaaNqXIJdnMADpOCD-18" value="" style="edgeStyle=orthogonalEdgeStyle;rounded=0;orthogonalLoop=1;jettySize=auto;html=1;entryX=0;entryY=0.5;entryDx=0;entryDy=0;exitX=1;exitY=0.5;exitDx=0;exitDy=0;" parent="1" target="IAnWaaNqXIJdnMADpOCD-16" edge="1">
          <mxGeometry relative="1" as="geometry">
            <mxPoint x="630" y="450" as="targetPoint" />
            <mxPoint x="680" y="540" as="sourcePoint" />
          </mxGeometry>
        </mxCell>
        <mxCell id="IAnWaaNqXIJdnMADpOCD-19" value="YES" style="edgeLabel;html=1;align=center;verticalAlign=middle;resizable=0;points=[];" parent="IAnWaaNqXIJdnMADpOCD-18" vertex="1" connectable="0">
          <mxGeometry x="-0.3393" y="1" relative="1" as="geometry">
            <mxPoint as="offset" />
          </mxGeometry>
        </mxCell>
        <mxCell id="IAnWaaNqXIJdnMADpOCD-20" value="" style="edgeStyle=orthogonalEdgeStyle;rounded=0;orthogonalLoop=1;jettySize=auto;html=1;entryX=0;entryY=0.5;entryDx=0;entryDy=0;exitX=1;exitY=0.5;exitDx=0;exitDy=0;" parent="1" source="IAnWaaNqXIJdnMADpOCD-16" target="IAnWaaNqXIJdnMADpOCD-17" edge="1">
          <mxGeometry relative="1" as="geometry">
            <mxPoint x="630" y="530" as="targetPoint" />
            <mxPoint x="630" y="490" as="sourcePoint" />
          </mxGeometry>
        </mxCell>
        <mxCell id="-qH65SijrSu3EQYGlq_b-3" style="edgeStyle=orthogonalEdgeStyle;rounded=0;orthogonalLoop=1;jettySize=auto;html=1;exitX=0.5;exitY=1;exitDx=0;exitDy=0;entryX=0.5;entryY=1;entryDx=0;entryDy=0;" edge="1" parent="1" source="IAnWaaNqXIJdnMADpOCD-21" target="-qH65SijrSu3EQYGlq_b-1">
          <mxGeometry relative="1" as="geometry" />
        </mxCell>
        <mxCell id="IAnWaaNqXIJdnMADpOCD-21" value="res = res + pow(int(s[I]), 2)" style="rounded=0;whiteSpace=wrap;html=1;fontSize=11;" parent="1" vertex="1">
          <mxGeometry x="550" y="600" width="140" height="40" as="geometry" />
        </mxCell>
        <mxCell id="IAnWaaNqXIJdnMADpOCD-24" value="" style="edgeStyle=orthogonalEdgeStyle;rounded=0;orthogonalLoop=1;jettySize=auto;html=1;entryX=0.5;entryY=0;entryDx=0;entryDy=0;" parent="1" target="IAnWaaNqXIJdnMADpOCD-11" edge="1">
          <mxGeometry relative="1" as="geometry">
            <mxPoint x="630" y="210" as="targetPoint" />
            <mxPoint x="620" y="240" as="sourcePoint" />
          </mxGeometry>
        </mxCell>
        <mxCell id="IAnWaaNqXIJdnMADpOCD-25" value="" style="edgeStyle=orthogonalEdgeStyle;rounded=0;orthogonalLoop=1;jettySize=auto;html=1;entryX=0.5;entryY=0;entryDx=0;entryDy=0;" parent="1" target="IAnWaaNqXIJdnMADpOCD-12" edge="1">
          <mxGeometry relative="1" as="geometry">
            <mxPoint x="630" y="290" as="targetPoint" />
            <mxPoint x="620" y="320" as="sourcePoint" />
          </mxGeometry>
        </mxCell>
        <mxCell id="IAnWaaNqXIJdnMADpOCD-26" value="" style="edgeStyle=orthogonalEdgeStyle;rounded=0;orthogonalLoop=1;jettySize=auto;html=1;entryX=0.5;entryY=0;entryDx=0;entryDy=0;" parent="1" target="IAnWaaNqXIJdnMADpOCD-13" edge="1">
          <mxGeometry relative="1" as="geometry">
            <mxPoint x="630" y="370" as="targetPoint" />
            <mxPoint x="620" y="400" as="sourcePoint" />
          </mxGeometry>
        </mxCell>
        <mxCell id="IAnWaaNqXIJdnMADpOCD-27" value="" style="edgeStyle=orthogonalEdgeStyle;rounded=0;orthogonalLoop=1;jettySize=auto;html=1;entryX=0.5;entryY=0;entryDx=0;entryDy=0;" parent="1" target="IAnWaaNqXIJdnMADpOCD-14" edge="1">
          <mxGeometry relative="1" as="geometry">
            <mxPoint x="630" y="450" as="targetPoint" />
            <mxPoint x="620" y="480" as="sourcePoint" />
          </mxGeometry>
        </mxCell>
        <mxCell id="-qH65SijrSu3EQYGlq_b-4" style="edgeStyle=orthogonalEdgeStyle;rounded=0;orthogonalLoop=1;jettySize=auto;html=1;exitX=0.5;exitY=0;exitDx=0;exitDy=0;" edge="1" parent="1" source="-qH65SijrSu3EQYGlq_b-1">
          <mxGeometry relative="1" as="geometry">
            <mxPoint x="620" y="500" as="targetPoint" />
            <Array as="points">
              <mxPoint x="450" y="500" />
            </Array>
          </mxGeometry>
        </mxCell>
        <mxCell id="-qH65SijrSu3EQYGlq_b-1" value="i += 1" style="rounded=0;whiteSpace=wrap;html=1;fontSize=11;" vertex="1" parent="1">
          <mxGeometry x="380" y="560" width="140" height="40" as="geometry" />
        </mxCell>
      </root>
    </mxGraphModel>
  </diagram>
</mxfile>
